<svg id="Capa_1" enable-background="new 0 0 512 512" height="512" viewBox="0 0 512 512" width="512" xmlns="http://www.w3.org/2000/svg"><g><g><circle cx="256" cy="256" fill="#6bbef6" r="248.5"/><path d="m325.72 494.58c-22.12 6.46-45.52 9.92-69.72 9.92-137.24 0-248.5-111.26-248.5-248.5 0-137.25 111.26-248.5 248.5-248.5 24.2 0 47.6 3.46 69.72 9.92-103.3 30.13-178.78 125.54-178.78 238.58s75.48 208.45 178.78 238.58z" fill="#528ecb"/><path d="m183.41 228.35c-11.73 70.37-74.29 100.34-49.53 156.38 24.77 56.03 25.09 72.66-4.39 85.2h-.01c-25.15-14.91-47.44-34.12-65.86-56.62 13.14-49.58-46.56-88.98-54.48-128.59 0-.02-.01-.04-.01-.06-1.07-9.4-1.63-18.97-1.63-28.66 0-59.42 20.85-113.96 55.64-156.72 61.62 17 131.99 58.7 120.27 129.07z" fill="#86f1a7"/><path d="m129.48 469.93h.01c29.48-12.54 29.16-29.17 4.39-85.2-14.14-32.004.2-55.508 17.286-82.887-2.771-14.859-4.226-30.181-4.226-45.843 0-33.954 6.818-66.314 19.146-95.795-23.301-30.402-64.796-50.4-102.947-60.925-34.789 42.76-55.639 97.3-55.639 156.72 0 9.69.56 19.26 1.63 28.66 0 .02.01.04.01.06 7.92 39.61 67.62 79.01 54.48 128.59 18.42 22.5 40.71 41.71 65.86 56.62z" fill="#66b49d"/><path d="m158.64 484.69-.002.004c29.901 12.746 62.806 19.806 97.362 19.806s67.46-7.06 97.36-19.805v-.005c-29.9-12.75-62.81-19.8-97.36-19.8s-67.46 7.05-97.36 19.8z" fill="#dfeaef"/><path d="m325.701 494.57c-23.18-6.763-44.952-16.822-64.791-29.621-1.634-.032-3.267-.063-4.908-.063-34.55 0-67.46 7.05-97.36 19.8l-.002.004c29.9 12.746 62.806 19.806 97.362 19.806 24.199 0 47.584-3.474 69.699-9.926z" fill="#b4d0d5"/><path d="m504.5 256c0 65.39-25.27 124.88-66.55 169.26-24.14-18.99-44.47-60.3-44.47-97.87 0-50.82 62.56-43 62.56-79.49s-86.01-10.43-86.01-78.19c0-43.83 42.27-67.25 72.13-78.33 38.79 43.84 62.34 101.48 62.34 164.62z" fill="#86f1a7"/><path d="m209.046 44.605c17.879 4.47 20.851 76.887-7.819 76.887s-57.991-11.728-57.991-29.321 34.534-55.385 65.81-47.566z" fill="#dfeaef"/><path d="m209.046 44.605c-31.276-7.819-65.81 29.973-65.81 47.566 0 14.682 20.423 25.273 43.844 28.378 10.194-15.649 22.103-30.075 35.46-43.018-.747-16.134-5.705-30.979-13.494-32.926z" fill="#b4d0d5"/><g><path d="m475.313 426.684h.142c12.168 0 22.028-9.868 22.028-22.028 0-12.168-9.86-22.036-22.028-22.036-.158 0-.317 0-.475.008h-201.708c-.158-.008-.317-.008-.475-.008-12.168 0-22.028 9.868-22.028 22.036 0 12.16 9.86 22.028 22.028 22.028h.142" fill="#ffb983"/><path d="m470.246 325.098c-64.08-6.212-128.16-6.212-192.24 0-4.973 39.843-6.437 79.685-4.394 119.528 1.487 29.003 24.696 52.089 53.705 53.459 31.206 1.473 62.412 1.473 93.618 0 29.009-1.37 52.218-24.455 53.705-53.459 2.044-39.843.579-79.685-4.394-119.528z" fill="#fcd0a3"/><path d="m278.01 325.092c32.034-3.107 64.079-4.656 96.123-4.656-16.223 0-32.446 1.568-48.668 4.703-2.524 40.227-3.26 80.454-2.227 120.672.679 26.471 10.353 48.056 23.048 52.98-6.319-.172-12.647-.411-18.966-.707-29.004-1.367-52.215-24.454-53.706-53.458-2.038-39.845-.575-79.69 4.396-119.534z" fill="#ffb983"/><path d="m474.439 364.776c-20.458 20.467-60.972-20.458-60.972-20.458 1.147 7.409-.937 14.626-8.967 20.362-5.688 4.063-12.122 5.85-18.785 6.118-26.7 1.071-56.966-22.408-56.966-22.408-5.392 14.827-21.299 14.531-34.482 11.28-12.131-2.992-22.379-11.022-28.23-22.064-10.057-18.976-23.689-51.077-9.789-64.977 20.362-20.362 45.619 0 45.619 0s24.53-9.206 55.838-15.726c.01 0 .029-.01.038-.01 37.464-7.801 84.622-11.778 111.112 8.413 27.342 20.841 26.051 79.012 5.584 99.47z" fill="#617881"/><path d="m385.716 370.798c-26.7 1.071-56.966-22.408-56.966-22.408-5.392 14.827-21.299 14.531-34.482 11.28-12.131-2.992-22.379-11.022-28.23-22.064-10.057-18.976-23.689-51.077-9.789-64.977 20.362-20.362 45.619 0 45.619 0s24.53-9.206 55.838-15.726c-40.476 10.632-7.294 101.219 28.01 113.895z" fill="#404a4a"/></g></g><g><path d="m201.227 128.992c14.919 0 25.471-13.369 28.228-35.763 2.469-20.052-1.732-51.686-18.589-55.9-15.237-3.81-32.433.976-48.433 13.468-15.718 12.273-26.696 29.286-26.696 41.373-.001 23.049 33.297 36.822 65.49 36.822zm-29.563-66.371c5.963-4.655 16.82-11.578 28.643-11.578 2.279 0 4.594.257 6.917.838 3.701 1.153 10.304 20.178 7.082 41.423-2.912 19.196-10.747 20.688-13.079 20.688-25.953 0-50.49-10.604-50.49-21.821-.001-8.62 12.154-22.7 20.927-29.55z"/><path d="m482.227 375.913c19.48-36.708 29.773-78.118 29.773-119.913 0-68.379-26.629-132.666-74.981-181.019-48.353-48.352-112.64-74.981-181.019-74.981s-132.666 26.629-181.019 74.981c-48.352 48.353-74.981 112.64-74.981 181.019s26.629 132.666 74.981 181.019c48.353 48.352 112.64 74.981 181.019 74.981 20.887 0 41.663-2.533 61.787-7.514 2.988.571 6.052.94 9.178 1.086 15.646.742 31.403 1.113 47.16 1.113s31.514-.371 47.16-1.113c8.195-.389 16.101-2.296 23.496-5.667 3.769-1.718 5.432-6.167 3.713-9.936s-6.164-5.432-9.936-3.713c-5.652 2.577-11.703 4.035-17.984 4.333-30.822 1.462-62.078 1.462-92.902 0-25.254-1.184-45.275-21.107-46.571-46.342-1.378-26.948-1.116-54.206.76-81.211 3.357 1.679 6.909 3.005 10.61 3.917 21.576 5.317 32.823-.585 38.67-7.72 10.743 7.046 32.145 19.09 52.894 19.089 8.663 0 17.213-2.099 24.826-7.537 4.607-3.291 7.961-7.203 10.011-11.622 10.308 8.287 26.331 18.806 41.287 18.844h.081c2.421 0 4.757-.283 6.985-.834 1.081 22.36 1.065 44.869-.075 67.076-.419 8.254-2.942 16.313-7.296 23.306-2.189 3.516-1.114 8.142 2.402 10.331 1.233.768 2.604 1.134 3.957 1.134 2.504 0 4.952-1.254 6.373-3.537 5.696-9.147 8.996-19.686 9.544-30.47.2-3.896.356-7.802.489-11.713 12.831-3.21 22.364-14.833 22.364-28.645-.001-13.954-9.729-25.671-22.756-28.742zm11.862-82.573c-3.777-14.614-10.943-26.573-20.691-34.002-3.166-2.413-6.592-4.501-10.221-6.315.237-1.666.363-3.375.363-5.123 0-21.159-20.555-26.815-38.69-31.805-24.334-6.695-47.319-13.019-47.319-46.385 0-20.516 10.985-48.928 62.402-69.436 36.928 43.473 57.067 98.049 57.067 155.726 0 12.528-.981 25.018-2.911 37.34zm-465.578 42.558c.108.151.215.301.324.453 13.006 18.178 26.338 36.831 28.747 56.524-12.259-17.691-22.011-36.829-29.071-56.977zm43.251 75.465c6.384-31.848-13.283-59.36-30.729-83.741-11.117-15.537-21.612-30.217-24.477-44.145-1.021-9.059-1.556-18.226-1.556-27.477 0-54.37 17.885-105.99 50.869-148.146 11.245 3.311 22.112 7.285 32.366 11.84.99.44 2.023.648 3.041.648 2.874 0 5.616-1.662 6.858-4.457 1.682-3.785-.024-8.217-3.81-9.899-8.944-3.973-18.324-7.52-27.992-10.604 2.987-3.333 6.065-6.604 9.254-9.793 45.521-45.52 106.042-70.589 170.414-70.589s124.893 25.069 170.412 70.588c.956.956 1.89 1.928 2.828 2.897-15.68 6.778-28.881 14.883-39.327 24.174-18.17 16.161-27.383 35.355-27.383 57.05 0 44.796 33.72 54.074 58.34 60.848 18.912 5.203 27.375 8.427 27.656 16.903-51.31-14.294-127.386 10.417-145.49 16.777-11.939-7.789-34.177-14.82-52.092 3.093-16.548 16.549-4.527 49.263 8.471 73.792 2.224 4.198 5.005 8.018 8.22 11.392-.649 7.774-1.168 15.571-1.552 23.384-13.056 3.05-22.814 14.781-22.814 28.757 0 13.808 9.529 25.429 22.355 28.643.133 3.91.296 7.816.496 11.716.224 4.354.885 8.583 1.921 12.655-4.001-.185-8.024-.28-12.042-.28-33.745 0-66.486 6.47-97.379 19.198-4.596-2.031-9.123-4.221-13.586-6.542 6-4.207 9.922-9.015 12.222-14.836 6.339-16.043-.911-38.213-16.507-73.511-12.674-28.685.547-49.869 17.284-76.689 12.919-20.702 27.563-44.167 32.773-75.426 7.017-42.062-12.399-79.183-56.148-107.35-3.482-2.242-8.123-1.237-10.365 2.246s-1.237 8.124 2.245 10.366c17.991 11.583 31.419 24.787 39.91 39.245 9.513 16.198 12.73 34.038 9.563 53.026-4.721 28.317-17.93 49.483-30.704 69.952-17.568 28.152-34.163 54.742-18.279 90.692 13.281 30.058 20.637 50.903 16.277 61.937-1.782 4.509-5.956 8.219-13.358 11.795-15.918-9.805-30.809-21.529-44.361-35.081-4.845-4.847-9.446-9.874-13.824-15.048zm193.525 5.706c-4.198-2.55-7.017-7.152-7.017-12.412 0-5.345 2.906-10.013 7.212-12.538-.214 8.318-.281 16.638-.195 24.95zm27.966 77.063c-12.286 1.905-24.748 2.868-37.253 2.868-26.335 0-52.023-4.201-76.305-12.276 24.488-8.184 50.072-12.333 76.305-12.333 6.09 0 12.185.239 18.185.688 4.699 8.385 11.231 15.576 19.068 21.053zm166.956-131.125c-14.48-.027-34.804-17.313-41.409-23.968-2.287-2.312-5.805-2.884-8.705-1.422-2.903 1.463-4.533 4.63-4.037 7.843.855 5.539-.969 9.584-5.916 13.118-19.599 13.996-54.867-6.89-66.798-16.115-1.331-1.033-2.952-1.574-4.598-1.574-.696 0-1.396.097-2.08.294-2.303.665-4.149 2.39-4.969 4.643-1.063 2.922-4.304 11.819-25.637 6.561-10.016-2.468-18.541-9.133-23.392-18.288-14.592-27.537-18.747-48.532-11.117-56.163 6.367-6.368 13.787-8.277 22.681-5.841 7.379 2.022 12.892 6.351 12.924 6.375 2.065 1.667 4.857 2.116 7.343 1.184.289-.108 29.354-10.936 63.957-17.209 44.538-8.075 77.683-5.025 95.851 8.821 9.965 7.594 16.381 22.377 17.603 40.558 1.313 19.546-3.819 38.695-12.771 47.648-2.419 2.419-5.262 3.528-8.93 3.535zm22.767 54.055c.085-8.304.02-16.622-.194-24.937 4.3 2.527 7.2 7.191 7.2 12.531 0 5.256-2.814 9.855-7.006 12.406z"/><ellipse cx="327.223" cy="396.919" rx="9.21" ry="13.69"/><path d="m411.819 396.919c0 7.549 4.132 13.69 9.211 13.69 5.078 0 9.21-6.142 9.21-13.69s-4.132-13.69-9.21-13.69c-5.079 0-9.211 6.141-9.211 13.69z"/><path d="m388.286 427.405c-2.583 5.44-8.141 8.956-14.16 8.956s-11.577-3.515-14.159-8.956c-1.776-3.743-6.25-5.336-9.99-3.561-3.742 1.776-5.337 6.249-3.561 9.991 5.052 10.646 15.929 17.525 27.71 17.525s22.658-6.879 27.711-17.524c1.776-3.742.183-8.215-3.56-9.991-3.739-1.776-8.214-.182-9.991 3.56z"/></g></g></svg>